/* XPM */
static char *_fc56deba2c14c5397a39c32883e5525[] = {
/* columns rows colors chars-per-pixel */
"64 64 179 2 ",
"   c #030303",
".  c #0C0405",
"X  c #010807",
"o  c #040A0A",
"O  c #0B0B0B",
"+  c #120404",
"@  c #1D0405",
"#  c #190709",
"$  c #120C0B",
"%  c #1E0A0B",
"&  c #04100F",
"*  c #0C100F",
"=  c #1F0F10",
"-  c #021010",
";  c #0D1313",
":  c #131414",
">  c #1B1413",
",  c #121718",
"<  c #151B1B",
"1  c #1C1C1C",
"2  c #240608",
"3  c #220A0A",
"4  c #2E0C0D",
"5  c #330E0D",
"6  c #3E0F0F",
"7  c #21100E",
"8  c #2C0F10",
"9  c #241414",
"0  c #281413",
"q  c #201718",
"w  c #241D1D",
"e  c #2C1B1A",
"r  c #351213",
"t  c #3B1314",
"y  c #321A1B",
"u  c #3C1D1D",
"i  c #1B201F",
"p  c #191F20",
"a  c #2D1F20",
"s  c #162626",
"d  c #1C2222",
"f  c #1F2927",
"g  c #1C2C2B",
"h  c #222323",
"j  c #2A2524",
"k  c #232927",
"l  c #272728",
"z  c #242B2B",
"x  c #2C2D2D",
"c  c #322222",
"v  c #3E2424",
"b  c #342D2C",
"n  c #3B2C2B",
"m  c #2C302F",
"M  c #3F302F",
"N  c #2E2F30",
"B  c #263030",
"V  c #2C3131",
"C  c #303030",
"Z  c #3F3332",
"A  c #431415",
"S  c #431A1B",
"D  c #4D1B1C",
"F  c #501718",
"G  c #541B1C",
"H  c #591C1B",
"J  c #6F0C0D",
"K  c #611719",
"L  c #641A1B",
"P  c #751617",
"I  c #461F20",
"U  c #491F20",
"Y  c #492525",
"T  c #432B2A",
"R  c #4A2C2D",
"E  c #542324",
"W  c #5B2425",
"Q  c #532B2C",
"!  c #5B2A2B",
"~  c #422F30",
"^  c #4E2F30",
"/  c #503030",
"(  c #5B3232",
")  c #632424",
"_  c #692324",
"`  c #6D2827",
"'  c #692628",
"]  c #652C2C",
"[  c #6B2C2C",
"{  c #792224",
"}  c #722827",
"|  c #732628",
" . c #742B2C",
".. c #7D2829",
"X. c #772D30",
"o. c #633132",
"O. c #6A3233",
"+. c #633F3F",
"@. c #743233",
"#. c #7C3233",
"$. c #7A3939",
"%. c #B11818",
"&. c #802525",
"*. c #852628",
"=. c #832C2D",
"-. c #8B2C2C",
";. c #833434",
":. c #8E3434",
">. c #863837",
",. c #833B3C",
"<. c #8C3A3B",
"1. c #933434",
"2. c #9A3535",
"3. c #933837",
"4. c #9D3837",
"5. c #903638",
"6. c #99373A",
"7. c #923C3B",
"8. c #9C3B3B",
"9. c #B62323",
"0. c #A93638",
"q. c #A33D3D",
"w. c #BF3737",
"e. c #BF3A3B",
"r. c #CC0506",
"t. c #F70303",
"y. c #FB0101",
"u. c #FF090A",
"i. c #EA1616",
"p. c #FF1414",
"a. c #FD1A1A",
"s. c #C42A2B",
"d. c #EC2B2B",
"f. c #F02E2D",
"g. c #FD2C2C",
"h. c #E03434",
"j. c #FF3937",
"k. c #94403F",
"l. c #8B3F40",
"z. c #9F3E40",
"x. c #AD3F40",
"c. c #B63F42",
"v. c #824442",
"b. c #8B4042",
"n. c #8F4C4C",
"m. c #964040",
"M. c #994342",
"N. c #9B5051",
"B. c #A44244",
"V. c #A94747",
"C. c #A74648",
"Z. c #A44D4E",
"A. c #AA4B4D",
"S. c #B44C4C",
"D. c #B34F51",
"F. c #BC5454",
"G. c #B25C5A",
"H. c #B8585A",
"J. c #B25E62",
"K. c #BF7D7E",
"L. c #D54140",
"P. c #D04748",
"I. c #D24949",
"U. c #E74446",
"Y. c #EA4F4E",
"T. c #FD4343",
"R. c #F94E4E",
"E. c #E1504F",
"W. c #E15051",
"Q. c #FF5051",
"!. c #CA6464",
"~. c #CE7372",
"^. c #FF6666",
"/. c #FF6C6B",
"(. c #E57573",
"). c #F57573",
"_. c #FF7473",
"`. c #FF8383",
"'. c None",
/* pixels */
"'.'.'.'.'.'.'.'.'.'.'.'.'.'.'.'.'.'.'.'.'.'.'.'.'.'.'.'.'.'.'.'.'.'.'.'.'.'.'.'.'.'.'.'.'.'.'.'.'.'.'.'.'.'.'.'.'.'.'.4.;.o.n.'.",
"'.'.'.'.'.'.'.'.'.'.'.'.'.'.'.'.'.'.'.'.'.'.'.'.'.'.'.'.'.'.'.'.'.'.'.'.'.'.'.'.'.'.'.'.'.'.'.'.'.'.'.'.6.;.O./ Z b V m B b '.'.",
"'.'.'.'.'.'.'.'.'.'.'.'.'.'.'.'.'.'.'.'.'.'.'.'.'.'.'.'.'.'.'.'.'.'.'.'.'.'.'.'.'.'.'.'.'.3.#.o./ Z C V V B m V C C C C x B.'.'.",
"'.'.'.'.'.'.'.'.'.'.'.'.'.'.'.'.'.'.'.'.'.'.'.'.'.'.'.'.'.'.'.'.'.'.'.'.'.'.3.#.o.^ M C x B z m V V C C C C C C C C C B @.'.'.'.",
"'.'.'.'.'.'.'.'.'.'.'.'.'.'.'.'.'.'.'.'.'.'.'.'.'.'.'.'.'.'.V.m.$.o.^ n x m B B m m V C C C C C C C b C C C C C C C V M '.'.'.'.",
"'.'.'.'.'.'.'.'.'.'.'.'.'.'.'.'.'.'.'.'.'.'.'.q.>.@.( ~ n x z z z B m C C C C C C C C V C C C C C C N C C C C C C C z B.'.'.'.'.",
"'.'.'.'.'.'.'.'.'.'.'.'.'.'.'.'.'.a.i.] M b z z z B x x V C C C V C C C C C C C C C C C C C N b C C C C C C C C C B o.'.'.'.'.'.",
"'.'.'.'.'.'.'.'.'.'.'.'.'.'.'.Z.L t.u.%.z m x C V V N N C N x C C C x N N N C x x C C x C C N N C N N N C C C x B n '.'.'.'.'.'.",
"'.'.'.'.'.'.'.'.'.'.'.'.'.'.'.T g &.j.j.-.z C C x N N x N x x x x x x C x N N N x x b N x x N N C x x x C x C x l k.'.'.'.'.'.'.",
"'.'.'.'.'.'.'.'.'.'.'.'.'.'.$.z x z V.^.R.O.z z x x x N N C x x x C x x x x N x x N N x x x x N x x C C x m z g o.'.'.'.'.'.'.'.",
"'.'.'.'.'.'.'.'.'.'.'.'.'.S.j x x z N !._.Y.R k x b x x x x x x x x x x x x x x x N x x x x z x z z z z l b R ( '.'.'.'.'.'.'.'.",
"'.'.'.'.'.'.'.'.'.'.'.'.'.n z x x x l M (._.I.n z x x x x x x x x x x x x x x x x z z l z k x n ^ o.#.4.'.'.'.'.'.'.'.'.'.'.'.'.",
"'.'.'.'.'.'.'.'.'.'.'.'.,.f x x x x x k +.).^.V.l z x x x x x x x x x l z z f z x v Q o.;.4.'.'.'.'.'.'.'.'.'.'.'.'.'.'.'.'.'.'.",
"'.'.'.'.'.'.'.'.'.'.'.'.j l l x x l j l h v.^.Q.-.k x z x x d k f l x n Q O.;.4.'.'.'.'.'.'.'.'.'.'.'.'.'.'.'.'.'.'.'.'.'.'.'.'.",
"'.'.'.'.'.'.'.'.'.'.'.T k l x l x x l x l k x.T.g.` d k j n Q @.:.'.'.'.'.'.'.'.'.'.'.'.'.'.'.'.'.'.'.'.'.'.'.'.'.'.'.'.'.'.'.'.",
"'.'.'.'.'.'.'.'.'.'.,.d x l x l l l x l l k x s.g.h.:.'.'.'.'.'.'.'.'.'.'.'.'.'.'.'.'.'.'.'.'.'.'.'.'.'.'.'.'.'.'.'.'.'.'.'.'.'.",
"'.'.'.'.'.'.'.'.'.'.j l x j l l z x l l l k d q.'.'.'.'.'.'.'.'.'.'.'.'.'.'.'.'.'.'.'.'.'.'.'.'.'.'.'.'.'.'.'.'.'.'.'.'.'.'.'.'.",
"'.'.'.'.'.'.'.'.'.R d l z j h j l j l l l f @.'.'.'.'.'.'.'.'.'.'.'.'.'.'.'.'.'.'.'.'.'.'.'.'.'.'.'.'.'.'.'.'.'.'.'.'.'.'.'.'.'.",
"'.'.'.'.'.'.'.'.<.d h j j h l z j j h j d T '.'.'.'.'.'.'.'.'.'.'.'.'.'.'.'.'.'.'.'.'.'.'.'.'.'.'.'.'.'.'.'.'.'.'.'.'.'.'.'.'.'.",
"'.'.'.'.'.'.'.'.h h k l h l l j h z z h h '.'.'.'.'.'.'.'.'.'.'.'.'.'.'.'.'.'.'.'.'.'.'.'.'.'.'.'.'.q.@.Q c v '.'.'.'.'.'.'.'.'.",
"'.'.'.'.'.'.'.Q d j k l h j h j l h h d ' '.'.'.'.'.'.'.'.'.'.'.'.'.'.'.'.'.'.'.'.'.'.'.'.:.O.Y c h d d d d d Q '.'.'.'.'.'.'.'.",
"'.'.'.'.'.'.7.1 h h h h k k h h h h j h c '.'.'.'.'.'.'.'.'.'.'.'.'.'.'.'.'.'.q.>.! v j d 1 1 d d h h j j h j p #.'.'.'.'.'.'.'.",
"'.'.'.'.'.'.w d h h h h h h h h h h h h d v '.'.'.'.'.'.'.'.'.'.'.'.8.$.Q y i 1 p 1 d h h h h h j h h h h h h d w B.'.'.'.'.'.'.",
"'.'.'.'.'.n.< h h h h h h h h h h h h h d 1 ! '.'.'.'.'.'.;.] Y c i p < d d h h d h h h h h h h h d h h d h h h d w '.'.'.'.'.'.",
"'.'.'.'.'.'.E < h h d h h h h w h h d w d h < ' ;.! v w 1 < p 1 1 d h h w h w h h h h h 1 h h h h h 1 h w h w h h < v '.'.'.'.'.",
"'.'.'.'.'.'.'.c 1 h i w 1 h 1 h d h h d w h d 1 < < d d 1 h d h i h d w d d h 1 1 h 1 h 1 h 1 h w 1 h h i h i h h d < W '.'.'.'.",
"'.'.'.'.'.'.'.6.< d w d w d i 1 1 h 1 w h 1 1 h w d i w h 1 1 1 w 1 h h 1 h 1 h w d p w w 1 h h i 1 1 h 1 h h 1 1 1 h , ;.'.'.'.",
"'.'.'.'.'.'.'.'.[ < 1 1 d 1 w w w 1 d 1 p w 1 1 1 w i 1 1 h 1 1 1 d 1 1 h 1 1 1 d 1 w 1 1 d 1 1 w i 1 h 1 1 i 1 1 h 1 1 q '.'.'.",
"'.'.'.'.'.'.'.'.'.u < 1 1 d 1 1 1 1 1 1 1 1 1 1 1 i 1 1 1 1 1 1 1 1 1 1 1 1 1 1 1 1 1 1 1 1 1 < 1 1 1 1 1 1 1 1 1 1 1 1 < e '.'.",
"'.'.'.'.'.'.'.'.'.'.> < 1 1 1 1 1 1 1 1 1 1 1 1 1 1 1 1 1 1 1 1 1 1 1 1 1 1 1 1 1 1 < < < , w S q < 1 1 1 1 1 1 1 1 1 1 1 < E '.",
"'.'.'.'.'.'.'.'.'.'.#., 1 1 < 1 1 1 < 1 1 1 1 < 1 1 1 1 1 1 1 1 1 1 < 1 1 < < < , 1 y E | '.'.'.8.: 1 1 1 1 < 1 1 1 1 q 1 1 ; O.",
"'.'.'.'.'.'.'.'.'.'.'.S , < > 1 1 1 1 > 1 < > 1 1 1 : 1 1 > < 1 < , , , : e S ) '.'.'.'.'.'.'.'.'.@.* 1 q < q q < < < q < 1 ; ] ",
"'.'.'.'.'.'.'.'.'.'.'.'.e : < q > < < 1 < 1 < 1 1 < 1 < : ; , : q u ) =.'.'.'.'.'.'.'.'.'.'.'.'.'.'.! , 1 > < 1 , 1 > 1 < , > '.",
"'.'.'.'.'.'.'.'.'.'.'.'.'.: : < < 1 : > > , > , , * ; > y W #.'.'.'.'.'.'.'.'.'.'.'.'.'.'.'.'.'.'.'.'.9 > < < > , > < < > ; W '.",
"'.'.'.'.'.'.'.'.'.'.'.'.'.] * , > : : ; * * : 0 S } '.'.'.'.'.'.'.'.'.'.'.'.'.'.'.'.'.'.'.'.'.'.'.'.F.> : < , > > < > > > * A.'.",
"'.'.'.'.'.'.'.'.'.'.'.'.'.'.S & & : > u o.z.'.'.'.'.'.'.'.'.'.'.'.'.'.'.'.'.'.'.'.'.'.'.'.'.'.'.'.'.I * , > , , , : : < : y '.'.",
"'.'.'.'.'.'.'.'.'.'.'.'.'.'.'.E ;.S.'.'.'.'.'.'.'.'.'.'.'.'.'.'.'.'.'.'.'.'.'.'.'.'.'.'.'.'.'.'.'.Z.O : : : : : < : : : & ;.'.'.",
"'.'.'.'.'.'.'.'.'.'.'.'.'.'.'.'.'.'.'.'.'.'.'.'.'.'.'.'.'.'.'.'.'.'.'.'.'.'.'.'.'.'.'.'.'.'.'.'.'.u * : : : : : : : : ; 7 '.'.'.",
"'.'.'.'.'.'.'.'.'.'.'.'.'.'.'.'.'.'.'.'.'.'.'.'.'.'.'.'.'.'.'.'.'.'.'.'.'.'.'.'.'.'.'.'.'.'.'.'.w.$ ; : : : : : : : : o ] '.'.'.",
"'.'.'.'.'.'.'.'.'.'.'.'.'.'.'.'.'.'.'.'.'.'.'.'.'.'.'.'.'.'.'.'.'.'.'.'.'.'.'.'.'.'.'.'.'.A.e.p.t.J & : : : $ : $ > : O '.'.'.'.",
"'.'.'.'.'.'.'.'.'.'.'.'.'.'.'.'.'.'.'.'.'.'.'.'.'.'.'.'.'.'.'.'.'.'.'.'.'.'.'.'.'.'.6.G = o # r.p.f.S & : $ ; : ; $ & t '.'.'.'.",
"'.'.'.'.'.'.'.'.'.'.'.'.'.'.'.'.'.'.'.'.'.'.'.'.'.'.'.'.'.'.'.'.'.'.'.'.'.'.'.'.] 7 o & * : - 5 d.Q.W.9 & ; $ $ $ ; o 7.'.'.'.'.",
"'.'.'.'.'.'.'.'.'.'.'.'.'.'.'.'.'.'.'.'.'.'.'.'.'.'.'.'.'.'.'.'.'.'.'.'.'.'.D O o * * $ $ * $ - G R./.F.* O : * ; O 8 '.'.'.'.'.",
"'.'.'.'.'.'.'.'.'.'.'.'.'.'.'.'.'.'.'.'.'.'.'.'.'.'.'.'.'.'.'.'.'.'.'.q.S o o * * $ * * * * * $ o *.^.`.N.o O * * X ] '.'.'.'.'.",
"'.'.'.'.'.'.'.'.'.'.'.'.'.'.'.'.'.'.'.'.'.'.'.'.'.'.'.'.'.'.'.'.'.4.r o o * * $ O O O $ * * * O O o 0._.`.O.X O O $ '.'.'.'.'.'.",
"'.'.'.'.'.'.'.'.'.'.'.'.'.'.'.'.'.'.'.'.'.'.'.'.'.'.'.'.'.'.'.B.t X o O O O * $ * * * $ * O * $ O & # P._.).Y X o S '.'.'.'.'.'.",
"'.'.'.'.'.'.'.'.'.'.'.'.'.'.'.'.'.'.'.'.'.'.'.'.'.'.'.'.'.D.t   o O O * O O O O O O O O O O O O O O X r Y./.E.3   z.'.'.'.'.'.'.",
"'.'.'.'.'.'.'.'.'.'.'.'.'.'.'.'.'.'.'.'.'.'.'.'.'.'.'.F.D   X O O O O O O O O O O O O O O O O O O O O   F T.T.9.r '.'.'.'.'.'.'.",
"'.'.'.'.'.'.'.'.'.'.'.'.'.'.'.'.'.'.'.'.'.'.'.'.'.'.W .   o O O O O O O O O . O O O O O O O O O O O O o   P g.g.L.'.'.'.'.'.'.'.",
"'.'.'.'.'.'.'.'.'.'.'.'.'.'.'.'.'.'.'.'.'.'.'.'.X.+   o O O . o o . o O . O o O o . O o . o . O X     . 8 _ U.'.'.'.'.'.'.'.'.'.",
"'.'.'.'.'.'.'.'.'.'.'.'.'.'.'.'.'.'.'.'.'.'.<.%   X . o o . . O . o o . o . o o . o o . X X   X = G :.'.'.'.'.'.'.'.'.'.'.'.'.'.",
"'.'.'.'.'.'.'.'.'.'.'.'.'.'.'.'.'.'.'.'.A.r     . o . O o . o o . O o . O o . . . X     + A ..'.'.'.'.'.'.'.'.'.'.'.'.'.'.'.'.'.",
"'.'.'.'.'.'.'.'.'.'.'.'.'.'.'.'.'.'.'.G   X . X . X . X . X . X X o   O . X     . 4 _ '.'.'.'.'.'.'.'.'.'.'.'.'.'.'.'.'.'.'.'.'.",
"'.'.'.'.'.'.'.'.'.'.'.'.'.'.'.'.'. ..     . X . . X X . X . .             3 G 1.'.'.'.'.'.'.'.'.'.'.'.'.'.'.'.'.'.'.'.'.'.'.'.'.",
"'.'.'.'.'.'.'.'.'.'.'.'.'.'.'.M.@     . X     . X   .   X         # A *.'.'.'.'.'.'.'.'.'.'.'.'.'.'.'.'.'.'.'.'.'.'.'.'.'.'.'.'.",
"'.'.'.'.'.'.'.'.'.'.'.'.'.H.A       X .                   . 5 _ '.'.'.'.'.'.'.'.'.'.'.'.'.'.'.'.'.'.'.'.'.'.'.'.'.'.'.'.'.'.'.'.",
"'.'.'.'.'.'.'.'.'.'.'.'.'                           3 H 2.'.'.'.'.'.'.'.'.'.'.'.'.'.'.'.'.'.'.'.'.'.'.'.'.'.'.'.'.'.'.'.'.'.'.'.",
"'.'.'.'.'.'.'.'.'.'.7.+                     3 F -.'.'.'.'.'.'.'.'.'.'.'.'.'.'.'.'.'.'.'.'.'.'.'.'.'.'.'.'.'.'.'.'.'.'.'.'.'.'.'.",
"'.'.'.'.'.'.'.'.G.6                 + t | q.'.'.'.'.'.'.'.'.'.'.'.'.'.'.'.'.'.'.'.'.'.'.'.'.'.'.'.'.'.'.'.'.'.'.'.'.'.'.'.'.'.'.",
"'.'.'.'.'.'.~.)               4 _ 8.'.'.'.'.'.'.'.'.'.'.'.'.'.'.'.'.'.'.'.'.'.'.'.'.'.'.'.'.'.'.'.'.'.'.'.'.'.'.'.'.'.'.'.'.'.'.",
"'.'.'.'.'.<.@         @ F :.'.'.'.'.'.'.'.'.'.'.'.'.'.'.'.'.'.'.'.'.'.'.'.'.'.'.'.'.'.'.'.'.'.'.'.'.'.'.'.'.'.'.'.'.'.'.'.'.'.'.",
"'.'.'.J.t     + 6 { '.'.'.'.'.'.'.'.'.'.'.'.'.'.'.'.'.'.'.'.'.'.'.'.'.'.'.'.'.'.'.'.'.'.'.'.'.'.'.'.'.'.'.'.'.'.'.'.'.'.'.'.'.'.",
"'.~.' + 2 K '.'.'.'.'.'.'.'.'.'.'.'.'.'.'.'.'.'.'.'.'.'.'.'.'.'.'.'.'.'.'.'.'.'.'.'.'.'.'.'.'.'.'.'.'.'.'.'.'.'.'.'.'.'.'.'.'.'.",
"'. .*.'.'.'.'.'.'.'.'.'.'.'.'.'.'.'.'.'.'.'.'.'.'.'.'.'.'.'.'.'.'.'.'.'.'.'.'.'.'.'.'.'.'.'.'.'.'.'.'.'.'.'.'.'.'.'.'.'.'.'.'.'."
};
