/* XPM */
static char *_ccba91458a34d29871583948c2d6998[] = {
/* columns rows colors chars-per-pixel */
"32 32 100 2 ",
"   c #010303",
".  c #0B0404",
"X  c #010807",
"o  c #040A0A",
"O  c #0A0B0B",
"+  c #130101",
"@  c #170708",
"#  c #130809",
"$  c #180E0E",
"%  c #0E1415",
"&  c #131313",
"*  c #1E1515",
"=  c #141B1B",
"-  c #1C1C1C",
";  c #220D0D",
":  c #290809",
">  c #211112",
",  c #231B1B",
"<  c #2B1A1A",
"1  c #321414",
"2  c #351D1D",
"3  c #3C1E1E",
"4  c #142020",
"5  c #1D2323",
"6  c #1D2A2A",
"7  c #222222",
"8  c #2B2324",
"9  c #252827",
"0  c #242C2C",
"q  c #2C2D2D",
"w  c #332122",
"e  c #3B2625",
"r  c #352D2D",
"t  c #2F2F30",
"y  c #273031",
"u  c #2C3030",
"i  c #313131",
"p  c #520506",
"a  c #411718",
"s  c #461E1F",
"d  c #481A1B",
"f  c #511616",
"g  c #541E1E",
"h  c #442424",
"j  c #4E2323",
"k  c #442B2B",
"l  c #4C2A2B",
"z  c #5B2425",
"x  c #5C2728",
"c  c #572C2D",
"v  c #5A2D2D",
"b  c #562F30",
"n  c #413131",
"m  c #533434",
"M  c #5F3232",
"N  c #6A2423",
"B  c #622D2D",
"V  c #6C2C2C",
"C  c #792627",
"Z  c #7D2B2C",
"A  c #64302F",
"S  c #7F2F30",
"D  c #633434",
"F  c #6A3434",
"G  c #6F3738",
"H  c #6D3C3D",
"J  c #753030",
"K  c #7A3435",
"L  c #733B3C",
"P  c #7C3D3E",
"I  c #614242",
"U  c #921415",
"Y  c #823435",
"T  c #813638",
"R  c #833B3C",
"E  c #8C3A3A",
"W  c #903337",
"Q  c #903A3B",
"!  c #AB2B2A",
"~  c #AD3434",
"^  c #CB1919",
"/  c #D32121",
"(  c #D52F2F",
")  c #FC2E2D",
"_  c #824141",
"`  c #884141",
"'  c #8A4B4B",
"]  c #964245",
"[  c #994444",
"{  c #954648",
"}  c #924848",
"|  c #945456",
" . c #AD4444",
".. c #CC4444",
"X. c #EE4242",
"o. c #F74142",
"O. c #F55656",
"+. c #E16968",
"@. c #FB6A69",
"#. c None",
/* pixels */
"#.#.#.#.#.#.#.#.#.#.#.#.#.#.#.#.#.#.#.#.#.#.#.#.#.#.#.#.R F m #.",
"#.#.#.#.#.#.#.#.#.#.#.#.#.#.#.#.#.#.#.#.#.R F m n i t y y 6 _ #.",
"#.#.#.#.#.#.#.#.#.#.#.#.#.[ _ H m n i q y 0 y u i t i i y m #.#.",
"#.#.#.#.#.#.#.#./ ^ r q q 0 0 0 q u u i t i q u i q i q q #.#.#.",
"#.#.#.#.#.#.#.H e X.E 6 q r q q q u u r q u q q q y 0 6 R #.#.#.",
"#.#.#.#.#.#.#.9 6 I @.F 0 q q q q q 0 9 0 0 q r k M K [ #.#.#.#.",
"#.#.#.#.#.#.n 9 q 5 ' O.k 6 0 0 q r k D K #.#.#.#.#.#.#.#.#.#.#.",
"#.#.#.#.#.L 5 q 9 q 5 ~ ( A T #.#.#.#.#.#.#.#.#.#.#.#.#.#.#.#.#.",
"#.#.#.#.#.7 9 9 9 0 5 R #.#.#.#.#.#.#.#.#.#.#.#.#.#.#.#.#.#.#.#.",
"#.#.#.#.k 7 9 9 8 7 b #.#.#.#.#.#.#.#.#.#.#.#.#.#.#.E #.#.#.#.#.",
"#.#.#.P 4 7 7 7 7 5 Q #.#.#.#.#.#.#.#.#.#.E A k 8 7 4 8 #.#.#.#.",
"#.#.#.- 7 7 7 7 7 5 8 #.#.#.#.#.K v e 8 4 = 4 5 5 7 7 4 l #.#.#.",
"#.#.#.v = 7 7 7 7 - 5 w j 8 - 4 = - 4 7 7 5 , 5 , 7 5 , = A #.#.",
"#.#.#.#.w - - - 7 - - - = - - - 5 - , - - - - - 5 - - - - = E #.",
"#.#.#.#.#.= - - - - - - - - - - - - - = = = - < - - - - - - - #.",
"#.#.#.#.#.V % - - * - = - - = % % - , w z #.#.#.` % - - - - % h ",
"#.#.#.#.#.#.h % = & % % % - 2 x S #.#.#.#.#.#.#.#.A % & - - % R ",
"#.#.#.#.#.#.#.* & < l K #.#.#.#.#.#.#.#.#.#.#.#.#.c % = & & * #.",
"#.#.#.#.#.#.#.#.#.#.#.#.#.#.#.#.#.#.#.#.#.#.#.#.#.O & & & O D #.",
"#.#.#.#.#.#.#.#.#.#.#.#.#.#.#.#.#.#.#.#.#.#.#.#.U o & & & O #.#.",
"#.#.#.#.#.#.#.#.#.#.#.#.#.#.#.#.#.#.#.#.] s & p ) x o & O e #.#.",
"#.#.#.#.#.#.#.#.#.#.#.#.#.#.#.#.#.#.J > o o O o Y @.w X o } #.#.",
"#.#.#.#.#.#.#.#.#.#.#.#.#.#.#.#.J $ X O O O & O    .+.& $ #.#.#.",
"#.#.#.#.#.#.#.#.#.#.#.#.#.#.P $ X o O O O O O O X # ..! V #.#.#.",
"#.#.#.#.#.#.#.#.#.#.#.#.{ >   X O O O O O O X X   X f o.#.#.#.#.",
"#.#.#.#.#.#.#.#.#.#.#.1   X . X . o   X     ; g W #.#.#.#.#.#.#.",
"#.#.#.#.#.#.#.#.#.j     X .         # a C #.#.#.#.#.#.#.#.#.#.#.",
"#.#.#.#.#.#.#.G .           # 1 N #.#.#.#.#.#.#.#.#.#.#.#.#.#.#.",
"#.#.#.#.#.| $         ; g #.#.#.#.#.#.#.#.#.#.#.#.#.#.#.#.#.#.#.",
"#.#.#.#.3     @ d Y #.#.#.#.#.#.#.#.#.#.#.#.#.#.#.#.#.#.#.#.#.#.",
"#.#.D + : N #.#.#.#.#.#.#.#.#.#.#.#.#.#.#.#.#.#.#.#.#.#.#.#.#.#.",
"#.C #.#.#.#.#.#.#.#.#.#.#.#.#.#.#.#.#.#.#.#.#.#.#.#.#.#.#.#.#.#."
};
