/* XPM */
static char *d9a389582ae4400df858ef42610efbae[] = {
/* columns rows colors chars-per-pixel */
"16 16 106 2 ",
"   c black",
".  c #000202",
"X  c #000404",
"o  c #000606",
"O  c #070707",
"+  c #010808",
"@  c #020D0D",
"#  c #150707",
"$  c #1A0B0C",
"%  c #0C1111",
"&  c #0F1010",
"*  c #0C1212",
"=  c #0A1717",
"-  c #0E1616",
";  c #0E1818",
":  c #0D1B1B",
">  c #0F1C1B",
",  c #0E1C1C",
"<  c #161717",
"1  c #101818",
"2  c #111818",
"3  c #171A1A",
"4  c #151C1C",
"5  c #151D1D",
"6  c #1A1818",
"7  c #181A1A",
"8  c #191A1A",
"9  c #181D1D",
"0  c #191E1E",
"q  c #1C1F1E",
"w  c #1E1F1F",
"e  c #2D0C0D",
"r  c #281212",
"t  c #2C1010",
"y  c #2D1617",
"u  c #211E1E",
"i  c #211F1F",
"p  c #2B1D1D",
"a  c #341A1A",
"s  c #381D1D",
"d  c #1B2020",
"f  c #1D2423",
"g  c #1E2424",
"h  c #162929",
"j  c #172B2C",
"k  c #1D2A2A",
"l  c #1D2B2A",
"z  c #1E2B2A",
"x  c #222120",
"c  c #252121",
"v  c #232423",
"b  c #272324",
"n  c #2F2121",
"m  c #212B2B",
"M  c #202E2E",
"N  c #252F2F",
"B  c #2B2928",
"V  c #282C2C",
"C  c #2A2F2F",
"Z  c #372525",
"A  c #392121",
"S  c #3D2122",
"D  c #342D2D",
"F  c #343030",
"G  c #4A1C1C",
"H  c #472021",
"J  c #412525",
"K  c #452525",
"L  c #412828",
"P  c #402929",
"I  c #462F2F",
"U  c #4C2929",
"Y  c #4A2F2F",
"T  c #542122",
"R  c #522A2A",
"E  c #433233",
"W  c #543434",
"Q  c #563737",
"!  c #593232",
"~  c #5C3232",
"^  c #5D3535",
"/  c #573838",
"(  c #63292A",
")  c #662C2C",
"_  c #722526",
"`  c #722C2D",
"'  c #752E2E",
"]  c #603131",
"[  c #6B3130",
"{  c #6C3536",
"}  c #6A3A3A",
"|  c #763030",
" . c #7C3738",
".. c #7D3A3B",
"X. c #7E403F",
"o. c #624040",
"O. c #852F2E",
"+. c #833032",
"@. c #853738",
"#. c #823839",
"$. c #843A3C",
"%. c #853D3E",
"&. c #8E3D3D",
"*. c #A23232",
"=. c #894747",
"-. c None",
/* pixels */
"-.-.-.-.-.-.-.-.-.-.-.-.#.{ Y -.",
"-.-.-.-.-.@.} / E F C N M j / -.",
"-.-.-.=.[ X.h k k m V D I ^ -.-.",
"-.-.-.B k &.| ! ..-.-.-.-.-.-.-.",
"-.-.W f g ..-.-.-.-.-.-.-.-.-.-.",
"-.-.5 v d -.-.-.-.%.] L b x -.-.",
"-.-.u q q c Z i 5 > > : 5 0 n -.",
"-.-.$.- 8 2 = ; 8 p H ' L 3 2 U ",
"-.-.-.R 8 J ) -.-.-.-.-.-.% % ~ ",
"-.-.-.-.-.-.-.-.-.-.-.-.( @ % -.",
"-.-.-.-.-.-.-.-.-.-.S e *.< A -.",
"-.-.-.-.-.-.-.-.y o + o s O.-.-.",
"-.-.-.-.-.-.a . . o O r T -.-.-.",
"-.-.-.-.K . . $ G +.-.-.-.-.-.-.",
"-.-.o.# t ' -.-.-.-.-.-.-.-.-.-.",
"-._ -.-.-.-.-.-.-.-.-.-.-.-.-.-."
};
